<svg xmlns="http://www.w3.org/2000/svg" xmlns:xlink="http://www.w3.org/1999/xlink" style="margin:auto;background:rgba(NaN, NaN, NaN, 0);display:block;z-index:1;position:relative" width="1920" height="941" preserveAspectRatio="xMidYMid" viewBox="0 0 1920 941">
<g transform="translate(960,470.5) scale(1,1) translate(-960,-470.5)"><defs>
  <path id="path-9bxmrme9m0n-1" d="M-35 -35L35 -35L35 35L-35 35Z" fill="none" stroke="inherit" stroke-width="4.333333333333334" transform="scale(0.3)"></path>
  <path id="path-9bxmrme9m0n-2" d="M0 -37A37 37 0 0 1 0 37A37 37 0 0 1 0 -37" fill="none" stroke="inherit" stroke-width="4.333333333333334" transform="scale(0.3)"></path>
  <path id="path-9bxmrme9m0n-3" d="M0 -34.641L40 34.641L-40 34.641Z" fill="none" stroke="inherit" stroke-width="4.333333333333334" transform="scale(0.3)"></path>
</defs><path id="path0" d="M 104.07305646955521 319.4328159968805
c 0 29.000449843867376 -7.095854749031378 8.329916444515097 -15.425771193546476 8.329916444515097
S 73.22151408246225 348.4332658407479 73.22151408246225 319.4328159968805
s 7.095854749031378 -8.329916444515097 15.425771193546476 -8.329916444515097
S 104.07305646955521 290.4323661530131 104.07305646955521 319.4328159968805
z" fill="none" stroke="none"></path>
<use xlink:href="#path-9bxmrme9m0n-3" x="0" y="0" stroke="#aabbcc">
  <animateMotion begin="-2.985286932016944s" dur="10s" keyPoints="1;0" keyTimes="0;1" repeatCount="indefinite" calcMode="linear">
    <mpath xlink:href="#path0"></mpath>
  </animateMotion>
</use><path id="path1" d="M 169.37498273235195 487.56176119249653
c 0 20.922161811026175 -5.119252358017042 6.00955711593305 -11.128809473950092 6.00955711593305
S 147.11736378445175 508.4839230035227 147.11736378445175 487.56176119249653
s 5.119252358017042 -6.00955711593305 11.128809473950092 -6.00955711593305
S 169.37498273235195 466.63959938147036 169.37498273235195 487.56176119249653
z" fill="none" stroke="none"></path>
<use xlink:href="#path-9bxmrme9m0n-1" x="0" y="0" stroke="#ddeeff">
  <animateMotion begin="-5.227267452138696s" dur="10s" keyPoints="0;1" keyTimes="0;1" repeatCount="indefinite" calcMode="linear">
    <mpath xlink:href="#path1"></mpath>
  </animateMotion>
</use><path id="path2" d="M 305.4087530189958 778.323708070769
c 0 26.365403078249344 -6.451109263826966 7.573041309709918 -14.024150573536884 7.573041309709918
S 277.36045187192207 804.6891111490183 277.36045187192207 778.323708070769
s 6.451109263826966 -7.573041309709918 14.024150573536884 -7.573041309709918
S 305.4087530189958 751.9583049925197 305.4087530189958 778.323708070769
z" fill="none" stroke="none"></path>
<use xlink:href="#path-9bxmrme9m0n-2" x="0" y="0" stroke="#bbddff">
  <animateMotion begin="-3.823637345917792s" dur="10s" keyPoints="1;0" keyTimes="0;1" repeatCount="indefinite" calcMode="linear">
    <mpath xlink:href="#path2"></mpath>
  </animateMotion>
</use><path id="path3" d="M 351.20977762546244 432.72444513779925
c 0 35.72600665494338 -8.741469713443593 10.261725315781609 -19.003195029225203 10.261725315781609
S 313.20338756701204 468.4504517927426 313.20338756701204 432.72444513779925
s 8.741469713443593 -10.261725315781609 19.003195029225203 -10.261725315781609
S 351.20977762546244 396.9984384828559 351.20977762546244 432.72444513779925
z" fill="none" stroke="none"></path>
<use xlink:href="#path-9bxmrme9m0n-1" x="0" y="0" stroke="#aabbcc">
  <animateMotion begin="-0.927090237131758s" dur="10s" keyPoints="1;0" keyTimes="0;1" repeatCount="indefinite" calcMode="linear">
    <mpath xlink:href="#path3"></mpath>
  </animateMotion>
</use><path id="path4" d="M 530.9880074956798 104.28140471759525
c 0 46.627259015721194 -11.408797418740292 13.392936100260343 -24.801733519000635 13.392936100260343
S 481.38454045767844 150.90866373331644 481.38454045767844 104.28140471759525
s 11.408797418740292 -13.392936100260343 24.801733519000635 -13.392936100260343
S 530.9880074956798 57.65414570187406 530.9880074956798 104.28140471759525
z" fill="none" stroke="none"></path>
<use xlink:href="#path-9bxmrme9m0n-1" x="0" y="0" stroke="#aabbcc">
  <animateMotion begin="-9.245460708861732s" dur="10s" keyPoints="1;0" keyTimes="0;1" repeatCount="indefinite" calcMode="linear">
    <mpath xlink:href="#path4"></mpath>
  </animateMotion>
</use><path id="path5" d="M 580.9947578352364 328.95957931714224
c 0 42.324858549374405 -10.356082411017141 12.157140221628818 -22.51322263264596 12.157140221628818
S 535.9683125699446 371.28443786651667 535.9683125699446 328.95957931714224
s 10.356082411017141 -12.157140221628818 22.51322263264596 -12.157140221628818
S 580.9947578352364 286.6347207677678 580.9947578352364 328.95957931714224
z" fill="none" stroke="none"></path>
<use xlink:href="#path-9bxmrme9m0n-2" x="0" y="0" stroke="#aabbcc">
  <animateMotion begin="-6.953624923676987s" dur="10s" keyPoints="0;1" keyTimes="0;1" repeatCount="indefinite" calcMode="linear">
    <mpath xlink:href="#path5"></mpath>
  </animateMotion>
</use><path id="path6" d="M 692.9058609843742 295.7806771403724
c 0 25.774005940167214 -6.306405708764317 7.403171918984199 -13.709577627748518 7.403171918984199
S 665.486705728877 321.55468308053963 665.486705728877 295.7806771403724
s 6.306405708764317 -7.403171918984199 13.709577627748518 -7.403171918984199
S 692.9058609843742 270.0066712002052 692.9058609843742 295.7806771403724
z" fill="none" stroke="none"></path>
<use xlink:href="#path-9bxmrme9m0n-1" x="0" y="0" stroke="#ddeeff">
  <animateMotion begin="-7.276093805216353s" dur="10s" keyPoints="1;0" keyTimes="0;1" repeatCount="indefinite" calcMode="linear">
    <mpath xlink:href="#path6"></mpath>
  </animateMotion>
</use><path id="path7" d="M 779.3928842414392 143.8020777341266
c 0 44.04157783335803 -10.776130746459943 12.650240441496456 -23.4263711879564 12.650240441496456
S 732.5401418655264 187.84365556748463 732.5401418655264 143.8020777341266
s 10.776130746459943 -12.650240441496456 23.4263711879564 -12.650240441496456
S 779.3928842414392 99.76049990076858 779.3928842414392 143.8020777341266
z" fill="none" stroke="none"></path>
<use xlink:href="#path-9bxmrme9m0n-1" x="0" y="0" stroke="#bbddff">
  <animateMotion begin="-7.2243524781535s" dur="10s" keyPoints="1;0" keyTimes="0;1" repeatCount="indefinite" calcMode="linear">
    <mpath xlink:href="#path7"></mpath>
  </animateMotion>
</use><path id="path8" d="M 968.6993831996011 121.68576790526582
c 0 32.158116791827034 -7.868475385234274 9.23690588701415 -17.105381272248422 9.23690588701415
S 934.4886206551042 153.84388469709285 934.4886206551042 121.68576790526582
s 7.868475385234274 -9.23690588701415 17.105381272248422 -9.23690588701415
S 968.6993831996011 89.5276511134388 968.6993831996011 121.68576790526582
z" fill="none" stroke="none"></path>
<use xlink:href="#path-9bxmrme9m0n-1" x="0" y="0" stroke="#ddeeff">
  <animateMotion begin="-1.2013327347160474s" dur="10s" keyPoints="0;1" keyTimes="0;1" repeatCount="indefinite" calcMode="linear">
    <mpath xlink:href="#path8"></mpath>
  </animateMotion>
</use><path id="path9" d="M 1020.4215874818948 732.9728556402446
c 0 47.162386091925995 -11.539732767173382 13.546642813638318 -25.086375580811698 13.546642813638318
S 970.2488363202714 780.1352417321706 970.2488363202714 732.9728556402446
s 11.539732767173382 -13.546642813638318 25.086375580811698 -13.546642813638318
S 1020.4215874818948 685.8104695483186 1020.4215874818948 732.9728556402446
z" fill="none" stroke="none"></path>
<use xlink:href="#path-9bxmrme9m0n-1" x="0" y="0" stroke="#bbddff">
  <animateMotion begin="-6.176916877350349s" dur="10s" keyPoints="1;0" keyTimes="0;1" repeatCount="indefinite" calcMode="linear">
    <mpath xlink:href="#path9"></mpath>
  </animateMotion>
</use><path id="path10" d="M 1152.6200090429945 37.2445538135392
c 0 60.507168326135194 -14.804945441501163 17.379718561762235 -32.1846640032634 17.379718561762235
S 1088.2506810364678 97.7517221396744 1088.2506810364678 37.2445538135392
s 14.804945441501163 -17.379718561762235 32.1846640032634 -17.379718561762235
S 1152.6200090429945 -23.262614512595995 1152.6200090429945 37.2445538135392
z" fill="none" stroke="none"></path>
<use xlink:href="#path-9bxmrme9m0n-2" x="0" y="0" stroke="#ddeeff">
  <animateMotion begin="-0.6960458338257891s" dur="10s" keyPoints="1;0" keyTimes="0;1" repeatCount="indefinite" calcMode="linear">
    <mpath xlink:href="#path10"></mpath>
  </animateMotion>
</use><path id="path11" d="M 1235.6354049472843 298.2463263065335
c 0 59.84202768625021 -14.642198263656965 17.188667526901657 -31.830865790558622 17.188667526901657
S 1171.973673366167 358.0883539927837 1171.973673366167 298.2463263065335
s 14.642198263656965 -17.188667526901657 31.830865790558622 -17.188667526901657
S 1235.6354049472843 238.40429862028327 1235.6354049472843 298.2463263065335
z" fill="none" stroke="none"></path>
<use xlink:href="#path-9bxmrme9m0n-1" x="0" y="0" stroke="#ddeeff">
  <animateMotion begin="-8.358001182083639s" dur="10s" keyPoints="0;1" keyTimes="0;1" repeatCount="indefinite" calcMode="linear">
    <mpath xlink:href="#path11"></mpath>
  </animateMotion>
</use><path id="path12" d="M 1393.8212573853732 219.61500910864058
c 0 42.89191445881754 -10.49483013354046 12.320017982851848 -22.81484811639231 12.320017982851848
S 1348.1915611525885 262.5069235674581 1348.1915611525885 219.61500910864058
s 10.49483013354046 -12.320017982851848 22.81484811639231 -12.320017982851848
S 1393.8212573853732 176.72309464982305 1393.8212573853732 219.61500910864058
z" fill="none" stroke="none"></path>
<use xlink:href="#path-9bxmrme9m0n-2" x="0" y="0" stroke="#bbddff">
  <animateMotion begin="-8.154928252081714s" dur="10s" keyPoints="1;0" keyTimes="0;1" repeatCount="indefinite" calcMode="linear">
    <mpath xlink:href="#path12"></mpath>
  </animateMotion>
</use><path id="path13" d="M 1405.274821076788 247.72763856814285
c 0 35.01461617438612 -8.567406085222135 10.05738975221729 -18.624795837439425 10.05738975221729
S 1368.025229401909 282.742254742529 1368.025229401909 247.72763856814285
s 8.567406085222135 -10.05738975221729 18.624795837439425 -10.05738975221729
S 1405.274821076788 212.71302239375672 1405.274821076788 247.72763856814285
z" fill="none" stroke="none"></path>
<use xlink:href="#path-9bxmrme9m0n-2" x="0" y="0" stroke="#ddeeff">
  <animateMotion begin="-1.099575766081633s" dur="10s" keyPoints="1;0" keyTimes="0;1" repeatCount="indefinite" calcMode="linear">
    <mpath xlink:href="#path13"></mpath>
  </animateMotion>
</use><path id="path14" d="M 1494.1191145018386 78.16931181514875
c 0 29.232733377130568 -7.1526900816383305 8.396636182792824 -15.549326264431153 8.396636182792824
S 1463.0204619729764 107.40204519227932 1463.0204619729764 78.16931181514875
s 7.1526900816383305 -8.396636182792824 15.549326264431153 -8.396636182792824
S 1494.1191145018386 48.936578438018174 1494.1191145018386 78.16931181514875
z" fill="none" stroke="none"></path>
<use xlink:href="#path-9bxmrme9m0n-2" x="0" y="0" stroke="#aabbcc">
  <animateMotion begin="-1.4337239557665504s" dur="10s" keyPoints="1;0" keyTimes="0;1" repeatCount="indefinite" calcMode="linear">
    <mpath xlink:href="#path14"></mpath>
  </animateMotion>
</use><path id="path15" d="M 1688.1307728873296 257.7837654618331
c 0 58.10473222946475 -14.217115332741374 16.689657129739874 -30.90677246248125 16.689657129739874
S 1626.317227962367 315.88849769129786 1626.317227962367 257.7837654618331
s 14.217115332741374 -16.689657129739874 30.90677246248125 -16.689657129739874
S 1688.1307728873296 199.67903323236837 1688.1307728873296 257.7837654618331
z" fill="none" stroke="none"></path>
<use xlink:href="#path-9bxmrme9m0n-3" x="0" y="0" stroke="#ddeeff">
  <animateMotion begin="-4.40559843322466s" dur="10s" keyPoints="1;0" keyTimes="0;1" repeatCount="indefinite" calcMode="linear">
    <mpath xlink:href="#path15"></mpath>
  </animateMotion>
</use><path id="path16" d="M 1790.2812783577815 168.7008423497398
c 0 32.063092997477554 -7.845224882361528 9.209611818424403 -17.05483670078593 9.209611818424403
S 1756.1716049562096 200.76393534721734 1756.1716049562096 168.7008423497398
s 7.845224882361528 -9.209611818424403 17.05483670078593 -9.209611818424403
S 1790.2812783577815 136.63774935226223 1790.2812783577815 168.7008423497398
z" fill="none" stroke="none"></path>
<use xlink:href="#path-9bxmrme9m0n-1" x="0" y="0" stroke="#aabbcc">
  <animateMotion begin="-8.210320416449036s" dur="10s" keyPoints="0;1" keyTimes="0;1" repeatCount="indefinite" calcMode="linear">
    <mpath xlink:href="#path16"></mpath>
  </animateMotion>
</use><path id="path17" d="M 1841.373750074211 282.031238569124
c 0 31.91920910325223 -7.810019248668097 9.168283465827768 -16.978302714495864 9.168283465827768
S 1807.4171446452194 313.95044767237624 1807.4171446452194 282.031238569124
s 7.810019248668097 -9.168283465827768 16.978302714495864 -9.168283465827768
S 1841.373750074211 250.11202946587179 1841.373750074211 282.031238569124
z" fill="none" stroke="none"></path>
<use xlink:href="#path-9bxmrme9m0n-1" x="0" y="0" stroke="#ddeeff">
  <animateMotion begin="-7.1006760031209275s" dur="10s" keyPoints="0;1" keyTimes="0;1" repeatCount="indefinite" calcMode="linear">
    <mpath xlink:href="#path17"></mpath>
  </animateMotion>
</use></g>
</svg>